<mxfile host="Electron" modified="2023-04-05T04:22:39.053Z" agent="Mozilla/5.0 (Windows NT 10.0; Win64; x64) AppleWebKit/537.36 (KHTML, like Gecko) draw.io/21.1.2 Chrome/106.0.5249.199 Electron/21.4.3 Safari/537.36" etag="KiqfqKPUGfGSFw0sH6E2" version="21.1.2" type="device">
  <diagram name="Page-1" id="Pw_LlT8iJ6Kt1lNkO4Q0">
    <mxGraphModel dx="1276" dy="654" grid="1" gridSize="10" guides="1" tooltips="1" connect="1" arrows="1" fold="1" page="1" pageScale="1" pageWidth="850" pageHeight="1100" math="0" shadow="0">
      <root>
        <mxCell id="0" />
        <mxCell id="1" parent="0" />
        <mxCell id="-ofy4VCtqgIwbsHvtE8e-1" value="" style="rounded=0;whiteSpace=wrap;html=1;" parent="1" vertex="1">
          <mxGeometry width="280" height="80" as="geometry" />
        </mxCell>
        <mxCell id="-ofy4VCtqgIwbsHvtE8e-2" value="&lt;div style=&quot;text-align: left; font-size: 15px;&quot;&gt;&lt;span style=&quot;background-color: initial;&quot;&gt;&lt;font style=&quot;font-size: 15px;&quot;&gt;Trương Văn Khải - 21520274&lt;/font&gt;&lt;/span&gt;&lt;/div&gt;&lt;div style=&quot;text-align: left; font-size: 15px;&quot;&gt;&lt;span style=&quot;background-color: initial;&quot;&gt;&lt;font style=&quot;font-size: 15px;&quot;&gt;Lê Yến Nhi - 21522427&lt;/font&gt;&lt;/span&gt;&lt;/div&gt;&lt;div style=&quot;text-align: left; font-size: 15px;&quot;&gt;&lt;span style=&quot;background-color: initial;&quot;&gt;&lt;font style=&quot;font-size: 15px;&quot;&gt;Ngô Phúc Danh - 21521924&lt;/font&gt;&lt;/span&gt;&lt;/div&gt;&lt;div style=&quot;text-align: left; font-size: 15px;&quot;&gt;&lt;span style=&quot;background-color: initial;&quot;&gt;&lt;font style=&quot;font-size: 15px;&quot;&gt;Lê Ngô Minh Đức - 21520195&lt;/font&gt;&lt;/span&gt;&lt;/div&gt;" style="text;html=1;strokeColor=none;fillColor=none;align=center;verticalAlign=middle;whiteSpace=wrap;rounded=0;" parent="1" vertex="1">
          <mxGeometry width="280" height="80" as="geometry" />
        </mxCell>
        <mxCell id="QIYEwkGV4SATtuJo1eIZ-1" value="&lt;b&gt;&lt;font style=&quot;font-size: 18px;&quot;&gt;Soccer Database&lt;/font&gt;&lt;/b&gt;" style="text;html=1;align=center;verticalAlign=middle;resizable=0;points=[];autosize=1;strokeColor=none;fillColor=none;" parent="1" vertex="1">
          <mxGeometry x="385" y="10" width="170" height="40" as="geometry" />
        </mxCell>
        <mxCell id="pqIcBsZuuDhNRbUoPRRa-2" value="&lt;b&gt;PERSON&lt;/b&gt;" style="whiteSpace=wrap;html=1;aspect=fixed;" parent="1" vertex="1">
          <mxGeometry x="425" y="80" width="70" height="70" as="geometry" />
        </mxCell>
        <mxCell id="pqIcBsZuuDhNRbUoPRRa-3" value="Name" style="ellipse;whiteSpace=wrap;html=1;" parent="1" vertex="1">
          <mxGeometry x="315" y="80" width="70" height="40" as="geometry" />
        </mxCell>
        <mxCell id="pqIcBsZuuDhNRbUoPRRa-4" value="Address" style="ellipse;whiteSpace=wrap;html=1;" parent="1" vertex="1">
          <mxGeometry x="530" y="80" width="70" height="40" as="geometry" />
        </mxCell>
        <mxCell id="pqIcBsZuuDhNRbUoPRRa-5" value="" style="endArrow=none;html=1;rounded=0;exitX=1;exitY=0.5;exitDx=0;exitDy=0;entryX=0;entryY=0.25;entryDx=0;entryDy=0;" parent="1" source="pqIcBsZuuDhNRbUoPRRa-3" target="pqIcBsZuuDhNRbUoPRRa-2" edge="1">
          <mxGeometry width="50" height="50" relative="1" as="geometry">
            <mxPoint x="375" y="140" as="sourcePoint" />
            <mxPoint x="425" y="90" as="targetPoint" />
          </mxGeometry>
        </mxCell>
        <mxCell id="pqIcBsZuuDhNRbUoPRRa-6" value="" style="endArrow=none;html=1;rounded=0;exitX=0;exitY=0.5;exitDx=0;exitDy=0;entryX=1;entryY=0.25;entryDx=0;entryDy=0;" parent="1" source="pqIcBsZuuDhNRbUoPRRa-4" target="pqIcBsZuuDhNRbUoPRRa-2" edge="1">
          <mxGeometry width="50" height="50" relative="1" as="geometry">
            <mxPoint x="395" y="110" as="sourcePoint" />
            <mxPoint x="435" y="108" as="targetPoint" />
          </mxGeometry>
        </mxCell>
        <mxCell id="pqIcBsZuuDhNRbUoPRRa-7" value="&lt;b&gt;FAN&lt;/b&gt;" style="whiteSpace=wrap;html=1;aspect=fixed;" parent="1" vertex="1">
          <mxGeometry x="200" y="200" width="70" height="70" as="geometry" />
        </mxCell>
        <mxCell id="pqIcBsZuuDhNRbUoPRRa-8" value="&lt;b&gt;COACH&lt;/b&gt;" style="whiteSpace=wrap;html=1;aspect=fixed;" parent="1" vertex="1">
          <mxGeometry x="425" y="200" width="70" height="70" as="geometry" />
        </mxCell>
        <mxCell id="pqIcBsZuuDhNRbUoPRRa-9" value="&lt;b&gt;PLAYER&lt;/b&gt;" style="whiteSpace=wrap;html=1;aspect=fixed;" parent="1" vertex="1">
          <mxGeometry x="670" y="200" width="70" height="70" as="geometry" />
        </mxCell>
        <mxCell id="pqIcBsZuuDhNRbUoPRRa-10" value="Name" style="ellipse;whiteSpace=wrap;html=1;" parent="1" vertex="1">
          <mxGeometry x="80" y="180" width="70" height="40" as="geometry" />
        </mxCell>
        <mxCell id="pqIcBsZuuDhNRbUoPRRa-11" value="Address" style="ellipse;whiteSpace=wrap;html=1;" parent="1" vertex="1">
          <mxGeometry x="80" y="130" width="70" height="40" as="geometry" />
        </mxCell>
        <mxCell id="pqIcBsZuuDhNRbUoPRRa-12" value="Fauvourite Player" style="ellipse;whiteSpace=wrap;html=1;" parent="1" vertex="1">
          <mxGeometry x="80" y="230" width="70" height="40" as="geometry" />
        </mxCell>
        <mxCell id="pqIcBsZuuDhNRbUoPRRa-13" value="" style="endArrow=none;html=1;rounded=0;entryX=1;entryY=0.5;entryDx=0;entryDy=0;" parent="1" target="pqIcBsZuuDhNRbUoPRRa-11" edge="1">
          <mxGeometry width="50" height="50" relative="1" as="geometry">
            <mxPoint x="240" y="200" as="sourcePoint" />
            <mxPoint x="290" y="150" as="targetPoint" />
            <Array as="points">
              <mxPoint x="240" y="150" />
            </Array>
          </mxGeometry>
        </mxCell>
        <mxCell id="pqIcBsZuuDhNRbUoPRRa-14" value="" style="endArrow=none;html=1;rounded=0;entryX=1;entryY=0;entryDx=0;entryDy=0;" parent="1" target="pqIcBsZuuDhNRbUoPRRa-10" edge="1">
          <mxGeometry width="50" height="50" relative="1" as="geometry">
            <mxPoint x="210" y="200" as="sourcePoint" />
            <mxPoint x="260" y="150" as="targetPoint" />
            <Array as="points">
              <mxPoint x="210" y="186" />
            </Array>
          </mxGeometry>
        </mxCell>
        <mxCell id="pqIcBsZuuDhNRbUoPRRa-15" value="" style="endArrow=none;html=1;rounded=0;" parent="1" edge="1">
          <mxGeometry width="50" height="50" relative="1" as="geometry">
            <mxPoint x="150" y="249.5" as="sourcePoint" />
            <mxPoint x="200" y="250" as="targetPoint" />
          </mxGeometry>
        </mxCell>
        <mxCell id="pqIcBsZuuDhNRbUoPRRa-16" value="Uniform Size" style="ellipse;whiteSpace=wrap;html=1;" parent="1" vertex="1">
          <mxGeometry x="760" y="130" width="70" height="40" as="geometry" />
        </mxCell>
        <mxCell id="pqIcBsZuuDhNRbUoPRRa-17" value="Uniform Num" style="ellipse;whiteSpace=wrap;html=1;" parent="1" vertex="1">
          <mxGeometry x="760" y="180" width="70" height="40" as="geometry" />
        </mxCell>
        <mxCell id="pqIcBsZuuDhNRbUoPRRa-18" value="Shoe Size" style="ellipse;whiteSpace=wrap;html=1;" parent="1" vertex="1">
          <mxGeometry x="760" y="230" width="70" height="40" as="geometry" />
        </mxCell>
        <mxCell id="pqIcBsZuuDhNRbUoPRRa-19" value="" style="endArrow=none;html=1;rounded=0;entryX=0;entryY=0.5;entryDx=0;entryDy=0;" parent="1" target="pqIcBsZuuDhNRbUoPRRa-16" edge="1">
          <mxGeometry width="50" height="50" relative="1" as="geometry">
            <mxPoint x="680" y="200" as="sourcePoint" />
            <mxPoint x="730" y="150" as="targetPoint" />
            <Array as="points">
              <mxPoint x="680" y="150" />
            </Array>
          </mxGeometry>
        </mxCell>
        <mxCell id="pqIcBsZuuDhNRbUoPRRa-20" value="" style="endArrow=none;html=1;rounded=0;entryX=0;entryY=0;entryDx=0;entryDy=0;" parent="1" target="pqIcBsZuuDhNRbUoPRRa-17" edge="1">
          <mxGeometry width="50" height="50" relative="1" as="geometry">
            <mxPoint x="690" y="200" as="sourcePoint" />
            <mxPoint x="740" y="150" as="targetPoint" />
            <Array as="points">
              <mxPoint x="690" y="186" />
            </Array>
          </mxGeometry>
        </mxCell>
        <mxCell id="pqIcBsZuuDhNRbUoPRRa-21" value="" style="endArrow=none;html=1;rounded=0;entryX=0;entryY=0.5;entryDx=0;entryDy=0;exitX=1;exitY=0.75;exitDx=0;exitDy=0;" parent="1" source="pqIcBsZuuDhNRbUoPRRa-9" target="pqIcBsZuuDhNRbUoPRRa-18" edge="1">
          <mxGeometry width="50" height="50" relative="1" as="geometry">
            <mxPoint x="400" y="400" as="sourcePoint" />
            <mxPoint x="450" y="350" as="targetPoint" />
          </mxGeometry>
        </mxCell>
        <mxCell id="pqIcBsZuuDhNRbUoPRRa-22" value="Personal Record" style="ellipse;whiteSpace=wrap;html=1;" parent="1" vertex="1">
          <mxGeometry x="315" y="215" width="70" height="40" as="geometry" />
        </mxCell>
        <mxCell id="pqIcBsZuuDhNRbUoPRRa-23" value="Experiences" style="ellipse;whiteSpace=wrap;html=1;" parent="1" vertex="1">
          <mxGeometry x="530" y="215" width="70" height="40" as="geometry" />
        </mxCell>
        <mxCell id="pqIcBsZuuDhNRbUoPRRa-24" value="" style="endArrow=none;html=1;rounded=0;entryX=1;entryY=0.5;entryDx=0;entryDy=0;exitX=0;exitY=0.5;exitDx=0;exitDy=0;" parent="1" source="pqIcBsZuuDhNRbUoPRRa-8" target="pqIcBsZuuDhNRbUoPRRa-22" edge="1">
          <mxGeometry width="50" height="50" relative="1" as="geometry">
            <mxPoint x="400" y="400" as="sourcePoint" />
            <mxPoint x="450" y="350" as="targetPoint" />
          </mxGeometry>
        </mxCell>
        <mxCell id="pqIcBsZuuDhNRbUoPRRa-25" value="" style="endArrow=none;html=1;rounded=0;entryX=0;entryY=0.5;entryDx=0;entryDy=0;exitX=1;exitY=0.5;exitDx=0;exitDy=0;" parent="1" source="pqIcBsZuuDhNRbUoPRRa-8" target="pqIcBsZuuDhNRbUoPRRa-23" edge="1">
          <mxGeometry width="50" height="50" relative="1" as="geometry">
            <mxPoint x="400" y="400" as="sourcePoint" />
            <mxPoint x="450" y="350" as="targetPoint" />
          </mxGeometry>
        </mxCell>
        <mxCell id="pqIcBsZuuDhNRbUoPRRa-27" value="" style="endArrow=none;html=1;rounded=0;entryX=0.5;entryY=1;entryDx=0;entryDy=0;" parent="1" source="pqIcBsZuuDhNRbUoPRRa-8" target="pqIcBsZuuDhNRbUoPRRa-2" edge="1">
          <mxGeometry width="50" height="50" relative="1" as="geometry">
            <mxPoint x="400" y="390" as="sourcePoint" />
            <mxPoint x="450" y="340" as="targetPoint" />
          </mxGeometry>
        </mxCell>
        <mxCell id="pqIcBsZuuDhNRbUoPRRa-28" value="" style="endArrow=none;html=1;rounded=0;" parent="1" edge="1">
          <mxGeometry width="50" height="50" relative="1" as="geometry">
            <mxPoint x="260" y="200" as="sourcePoint" />
            <mxPoint x="460" y="180" as="targetPoint" />
            <Array as="points">
              <mxPoint x="260" y="180" />
            </Array>
          </mxGeometry>
        </mxCell>
        <mxCell id="pqIcBsZuuDhNRbUoPRRa-29" value="" style="endArrow=none;html=1;rounded=0;" parent="1" edge="1">
          <mxGeometry width="50" height="50" relative="1" as="geometry">
            <mxPoint x="450" y="180" as="sourcePoint" />
            <mxPoint x="670" y="205" as="targetPoint" />
            <Array as="points">
              <mxPoint x="650" y="180" />
            </Array>
          </mxGeometry>
        </mxCell>
        <mxCell id="pqIcBsZuuDhNRbUoPRRa-30" value="SUPPORT" style="rhombus;whiteSpace=wrap;html=1;" parent="1" vertex="1">
          <mxGeometry x="200" y="370" width="70" height="60" as="geometry" />
        </mxCell>
        <mxCell id="pqIcBsZuuDhNRbUoPRRa-31" value="MANAGE" style="rhombus;whiteSpace=wrap;html=1;" parent="1" vertex="1">
          <mxGeometry x="426" y="370" width="70" height="60" as="geometry" />
        </mxCell>
        <mxCell id="pqIcBsZuuDhNRbUoPRRa-32" value="PLAY FOR" style="rhombus;whiteSpace=wrap;html=1;" parent="1" vertex="1">
          <mxGeometry x="670" y="370" width="70" height="60" as="geometry" />
        </mxCell>
        <mxCell id="pqIcBsZuuDhNRbUoPRRa-33" value="&lt;b&gt;TEAM&lt;/b&gt;" style="whiteSpace=wrap;html=1;aspect=fixed;" parent="1" vertex="1">
          <mxGeometry x="425" y="515" width="70" height="70" as="geometry" />
        </mxCell>
        <mxCell id="pqIcBsZuuDhNRbUoPRRa-34" value="" style="endArrow=none;html=1;rounded=0;entryX=0.5;entryY=1;entryDx=0;entryDy=0;" parent="1" source="pqIcBsZuuDhNRbUoPRRa-30" target="pqIcBsZuuDhNRbUoPRRa-7" edge="1">
          <mxGeometry width="50" height="50" relative="1" as="geometry">
            <mxPoint x="400" y="560" as="sourcePoint" />
            <mxPoint x="450" y="510" as="targetPoint" />
          </mxGeometry>
        </mxCell>
        <mxCell id="pqIcBsZuuDhNRbUoPRRa-35" value="" style="endArrow=none;html=1;rounded=0;entryX=0.5;entryY=1;entryDx=0;entryDy=0;exitX=0.5;exitY=0;exitDx=0;exitDy=0;" parent="1" source="pqIcBsZuuDhNRbUoPRRa-31" target="pqIcBsZuuDhNRbUoPRRa-8" edge="1">
          <mxGeometry width="50" height="50" relative="1" as="geometry">
            <mxPoint x="400" y="560" as="sourcePoint" />
            <mxPoint x="450" y="510" as="targetPoint" />
          </mxGeometry>
        </mxCell>
        <mxCell id="pqIcBsZuuDhNRbUoPRRa-36" value="" style="endArrow=none;html=1;rounded=0;entryX=0.5;entryY=1;entryDx=0;entryDy=0;" parent="1" source="pqIcBsZuuDhNRbUoPRRa-32" target="pqIcBsZuuDhNRbUoPRRa-9" edge="1">
          <mxGeometry width="50" height="50" relative="1" as="geometry">
            <mxPoint x="400" y="540" as="sourcePoint" />
            <mxPoint x="450" y="490" as="targetPoint" />
          </mxGeometry>
        </mxCell>
        <mxCell id="pqIcBsZuuDhNRbUoPRRa-37" value="" style="endArrow=none;html=1;rounded=0;entryX=0.5;entryY=1;entryDx=0;entryDy=0;exitX=0.5;exitY=0;exitDx=0;exitDy=0;" parent="1" source="pqIcBsZuuDhNRbUoPRRa-33" target="pqIcBsZuuDhNRbUoPRRa-31" edge="1">
          <mxGeometry width="50" height="50" relative="1" as="geometry">
            <mxPoint x="400" y="610" as="sourcePoint" />
            <mxPoint x="450" y="560" as="targetPoint" />
          </mxGeometry>
        </mxCell>
        <mxCell id="pqIcBsZuuDhNRbUoPRRa-38" value="" style="endArrow=none;html=1;rounded=0;entryX=0;entryY=0.25;entryDx=0;entryDy=0;exitX=0.5;exitY=1;exitDx=0;exitDy=0;" parent="1" source="pqIcBsZuuDhNRbUoPRRa-30" target="pqIcBsZuuDhNRbUoPRRa-33" edge="1">
          <mxGeometry width="50" height="50" relative="1" as="geometry">
            <mxPoint x="400" y="610" as="sourcePoint" />
            <mxPoint x="450" y="560" as="targetPoint" />
            <Array as="points">
              <mxPoint x="235" y="533" />
            </Array>
          </mxGeometry>
        </mxCell>
        <mxCell id="pqIcBsZuuDhNRbUoPRRa-43" value="" style="endArrow=none;html=1;rounded=0;exitX=1;exitY=0.25;exitDx=0;exitDy=0;entryX=0.5;entryY=1;entryDx=0;entryDy=0;" parent="1" source="pqIcBsZuuDhNRbUoPRRa-33" target="pqIcBsZuuDhNRbUoPRRa-32" edge="1">
          <mxGeometry width="50" height="50" relative="1" as="geometry">
            <mxPoint x="400" y="610" as="sourcePoint" />
            <mxPoint x="450" y="560" as="targetPoint" />
            <Array as="points">
              <mxPoint x="705" y="530" />
            </Array>
          </mxGeometry>
        </mxCell>
        <mxCell id="pqIcBsZuuDhNRbUoPRRa-44" value="Name" style="ellipse;whiteSpace=wrap;html=1;" parent="1" vertex="1">
          <mxGeometry x="315" y="545" width="70" height="40" as="geometry" />
        </mxCell>
        <mxCell id="pqIcBsZuuDhNRbUoPRRa-45" value="Location" style="ellipse;whiteSpace=wrap;html=1;" parent="1" vertex="1">
          <mxGeometry x="550" y="540" width="70" height="40" as="geometry" />
        </mxCell>
        <mxCell id="pqIcBsZuuDhNRbUoPRRa-46" value="Phone" style="ellipse;whiteSpace=wrap;html=1;" parent="1" vertex="1">
          <mxGeometry x="315" y="475" width="70" height="40" as="geometry" />
        </mxCell>
        <mxCell id="pqIcBsZuuDhNRbUoPRRa-47" value="Email" style="ellipse;whiteSpace=wrap;html=1;" parent="1" vertex="1">
          <mxGeometry x="540" y="475" width="70" height="40" as="geometry" />
        </mxCell>
        <mxCell id="pqIcBsZuuDhNRbUoPRRa-48" value="" style="endArrow=none;html=1;rounded=0;entryX=0.25;entryY=0;entryDx=0;entryDy=0;exitX=1;exitY=0.5;exitDx=0;exitDy=0;" parent="1" source="pqIcBsZuuDhNRbUoPRRa-46" target="pqIcBsZuuDhNRbUoPRRa-33" edge="1">
          <mxGeometry width="50" height="50" relative="1" as="geometry">
            <mxPoint x="390" y="490" as="sourcePoint" />
            <mxPoint x="450" y="470" as="targetPoint" />
          </mxGeometry>
        </mxCell>
        <mxCell id="pqIcBsZuuDhNRbUoPRRa-52" value="" style="endArrow=none;html=1;rounded=0;entryX=0;entryY=0.5;entryDx=0;entryDy=0;exitX=0.75;exitY=0;exitDx=0;exitDy=0;" parent="1" source="pqIcBsZuuDhNRbUoPRRa-33" target="pqIcBsZuuDhNRbUoPRRa-47" edge="1">
          <mxGeometry width="50" height="50" relative="1" as="geometry">
            <mxPoint x="400" y="520" as="sourcePoint" />
            <mxPoint x="450" y="470" as="targetPoint" />
          </mxGeometry>
        </mxCell>
        <mxCell id="pqIcBsZuuDhNRbUoPRRa-53" value="" style="endArrow=none;html=1;rounded=0;exitX=1;exitY=0.5;exitDx=0;exitDy=0;entryX=0;entryY=0.5;entryDx=0;entryDy=0;" parent="1" source="pqIcBsZuuDhNRbUoPRRa-44" target="pqIcBsZuuDhNRbUoPRRa-33" edge="1">
          <mxGeometry width="50" height="50" relative="1" as="geometry">
            <mxPoint x="400" y="520" as="sourcePoint" />
            <mxPoint x="450" y="470" as="targetPoint" />
          </mxGeometry>
        </mxCell>
        <mxCell id="pqIcBsZuuDhNRbUoPRRa-55" value="" style="endArrow=none;html=1;rounded=0;entryX=0;entryY=0.5;entryDx=0;entryDy=0;exitX=1;exitY=0.5;exitDx=0;exitDy=0;" parent="1" source="pqIcBsZuuDhNRbUoPRRa-33" target="pqIcBsZuuDhNRbUoPRRa-45" edge="1">
          <mxGeometry width="50" height="50" relative="1" as="geometry">
            <mxPoint x="495" y="575" as="sourcePoint" />
            <mxPoint x="545" y="525" as="targetPoint" />
          </mxGeometry>
        </mxCell>
        <mxCell id="pqIcBsZuuDhNRbUoPRRa-57" value="PLAY AGANIST" style="rhombus;whiteSpace=wrap;html=1;" parent="1" vertex="1">
          <mxGeometry x="417.5" y="660" width="85" height="70" as="geometry" />
        </mxCell>
        <mxCell id="pqIcBsZuuDhNRbUoPRRa-58" value="" style="endArrow=none;html=1;rounded=0;entryX=0;entryY=0.75;entryDx=0;entryDy=0;exitX=0;exitY=0.5;exitDx=0;exitDy=0;" parent="1" source="pqIcBsZuuDhNRbUoPRRa-57" target="pqIcBsZuuDhNRbUoPRRa-33" edge="1">
          <mxGeometry width="50" height="50" relative="1" as="geometry">
            <mxPoint x="375" y="630" as="sourcePoint" />
            <mxPoint x="425" y="580" as="targetPoint" />
            <Array as="points">
              <mxPoint x="360" y="695" />
              <mxPoint x="360" y="610" />
            </Array>
          </mxGeometry>
        </mxCell>
        <mxCell id="pqIcBsZuuDhNRbUoPRRa-59" value="" style="endArrow=none;html=1;rounded=0;entryX=1;entryY=0.75;entryDx=0;entryDy=0;exitX=1;exitY=0.5;exitDx=0;exitDy=0;" parent="1" source="pqIcBsZuuDhNRbUoPRRa-57" target="pqIcBsZuuDhNRbUoPRRa-33" edge="1">
          <mxGeometry width="50" height="50" relative="1" as="geometry">
            <mxPoint x="400" y="630" as="sourcePoint" />
            <mxPoint x="450" y="580" as="targetPoint" />
            <Array as="points">
              <mxPoint x="550" y="695" />
              <mxPoint x="550" y="610" />
            </Array>
          </mxGeometry>
        </mxCell>
        <mxCell id="pqIcBsZuuDhNRbUoPRRa-60" value="" style="endArrow=none;html=1;rounded=0;exitX=0.5;exitY=0;exitDx=0;exitDy=0;" parent="1" source="pqIcBsZuuDhNRbUoPRRa-94" edge="1">
          <mxGeometry width="50" height="50" relative="1" as="geometry">
            <mxPoint x="730" y="610" as="sourcePoint" />
            <mxPoint x="495" y="560" as="targetPoint" />
            <Array as="points">
              <mxPoint x="685" y="640" />
            </Array>
          </mxGeometry>
        </mxCell>
        <mxCell id="pqIcBsZuuDhNRbUoPRRa-61" value="&lt;b&gt;STADIUM&lt;/b&gt;" style="whiteSpace=wrap;html=1;aspect=fixed;" parent="1" vertex="1">
          <mxGeometry x="650" y="750" width="70" height="70" as="geometry" />
        </mxCell>
        <mxCell id="pqIcBsZuuDhNRbUoPRRa-62" value="Name" style="ellipse;whiteSpace=wrap;html=1;" parent="1" vertex="1">
          <mxGeometry x="770" y="710" width="70" height="40" as="geometry" />
        </mxCell>
        <mxCell id="pqIcBsZuuDhNRbUoPRRa-63" value="Address" style="ellipse;whiteSpace=wrap;html=1;" parent="1" vertex="1">
          <mxGeometry x="760" y="790" width="70" height="40" as="geometry" />
        </mxCell>
        <mxCell id="pqIcBsZuuDhNRbUoPRRa-64" value="Capacity" style="ellipse;whiteSpace=wrap;html=1;" parent="1" vertex="1">
          <mxGeometry x="760" y="840" width="70" height="40" as="geometry" />
        </mxCell>
        <mxCell id="pqIcBsZuuDhNRbUoPRRa-65" value="" style="endArrow=none;html=1;rounded=0;entryX=0;entryY=1;entryDx=0;entryDy=0;exitX=1;exitY=0.25;exitDx=0;exitDy=0;" parent="1" source="pqIcBsZuuDhNRbUoPRRa-61" target="pqIcBsZuuDhNRbUoPRRa-62" edge="1">
          <mxGeometry width="50" height="50" relative="1" as="geometry">
            <mxPoint x="720" y="740" as="sourcePoint" />
            <mxPoint x="770" y="690" as="targetPoint" />
          </mxGeometry>
        </mxCell>
        <mxCell id="pqIcBsZuuDhNRbUoPRRa-66" value="" style="endArrow=none;html=1;rounded=0;entryX=0;entryY=0.5;entryDx=0;entryDy=0;exitX=1;exitY=0.5;exitDx=0;exitDy=0;" parent="1" source="pqIcBsZuuDhNRbUoPRRa-61" target="pqIcBsZuuDhNRbUoPRRa-63" edge="1">
          <mxGeometry width="50" height="50" relative="1" as="geometry">
            <mxPoint x="390" y="850" as="sourcePoint" />
            <mxPoint x="440" y="800" as="targetPoint" />
          </mxGeometry>
        </mxCell>
        <mxCell id="pqIcBsZuuDhNRbUoPRRa-67" value="" style="endArrow=none;html=1;rounded=0;entryX=0;entryY=0.5;entryDx=0;entryDy=0;exitX=1;exitY=0.75;exitDx=0;exitDy=0;" parent="1" source="pqIcBsZuuDhNRbUoPRRa-61" target="pqIcBsZuuDhNRbUoPRRa-64" edge="1">
          <mxGeometry width="50" height="50" relative="1" as="geometry">
            <mxPoint x="390" y="850" as="sourcePoint" />
            <mxPoint x="440" y="800" as="targetPoint" />
          </mxGeometry>
        </mxCell>
        <mxCell id="pqIcBsZuuDhNRbUoPRRa-68" value="&lt;b&gt;GAME&lt;/b&gt;" style="whiteSpace=wrap;html=1;aspect=fixed;" parent="1" vertex="1">
          <mxGeometry x="425" y="852.5" width="70" height="70" as="geometry" />
        </mxCell>
        <mxCell id="pqIcBsZuuDhNRbUoPRRa-69" value="TAKE &lt;br&gt;PLACE AT" style="rhombus;whiteSpace=wrap;html=1;" parent="1" vertex="1">
          <mxGeometry x="645" y="850" width="80" height="75" as="geometry" />
        </mxCell>
        <mxCell id="pqIcBsZuuDhNRbUoPRRa-70" value="" style="endArrow=none;html=1;rounded=0;entryX=0.5;entryY=1;entryDx=0;entryDy=0;exitX=0.5;exitY=0;exitDx=0;exitDy=0;" parent="1" source="pqIcBsZuuDhNRbUoPRRa-69" target="pqIcBsZuuDhNRbUoPRRa-61" edge="1">
          <mxGeometry width="50" height="50" relative="1" as="geometry">
            <mxPoint x="400" y="850" as="sourcePoint" />
            <mxPoint x="450" y="800" as="targetPoint" />
          </mxGeometry>
        </mxCell>
        <mxCell id="pqIcBsZuuDhNRbUoPRRa-71" value="" style="endArrow=none;html=1;rounded=0;entryX=0;entryY=0.5;entryDx=0;entryDy=0;exitX=1;exitY=0.5;exitDx=0;exitDy=0;" parent="1" source="pqIcBsZuuDhNRbUoPRRa-68" target="pqIcBsZuuDhNRbUoPRRa-69" edge="1">
          <mxGeometry width="50" height="50" relative="1" as="geometry">
            <mxPoint x="400" y="850" as="sourcePoint" />
            <mxPoint x="450" y="800" as="targetPoint" />
          </mxGeometry>
        </mxCell>
        <mxCell id="pqIcBsZuuDhNRbUoPRRa-72" value="Number" style="ellipse;whiteSpace=wrap;html=1;" parent="1" vertex="1">
          <mxGeometry x="290" y="1000" width="70" height="40" as="geometry" />
        </mxCell>
        <mxCell id="pqIcBsZuuDhNRbUoPRRa-73" value="Attendance" style="ellipse;whiteSpace=wrap;html=1;" parent="1" vertex="1">
          <mxGeometry x="370" y="1000" width="70" height="40" as="geometry" />
        </mxCell>
        <mxCell id="pqIcBsZuuDhNRbUoPRRa-74" value="Score" style="ellipse;whiteSpace=wrap;html=1;" parent="1" vertex="1">
          <mxGeometry x="450" y="1000" width="70" height="40" as="geometry" />
        </mxCell>
        <mxCell id="pqIcBsZuuDhNRbUoPRRa-75" value="Date" style="ellipse;whiteSpace=wrap;html=1;" parent="1" vertex="1">
          <mxGeometry x="530" y="1000" width="70" height="40" as="geometry" />
        </mxCell>
        <mxCell id="pqIcBsZuuDhNRbUoPRRa-76" value="" style="endArrow=none;html=1;rounded=0;entryX=0.25;entryY=1;entryDx=0;entryDy=0;exitX=0.737;exitY=0.035;exitDx=0;exitDy=0;exitPerimeter=0;" parent="1" source="pqIcBsZuuDhNRbUoPRRa-72" target="pqIcBsZuuDhNRbUoPRRa-68" edge="1">
          <mxGeometry width="50" height="50" relative="1" as="geometry">
            <mxPoint x="400" y="820" as="sourcePoint" />
            <mxPoint x="450" y="770" as="targetPoint" />
          </mxGeometry>
        </mxCell>
        <mxCell id="pqIcBsZuuDhNRbUoPRRa-77" value="" style="endArrow=none;html=1;rounded=0;entryX=0.5;entryY=1;entryDx=0;entryDy=0;exitX=0.5;exitY=0;exitDx=0;exitDy=0;" parent="1" source="pqIcBsZuuDhNRbUoPRRa-73" target="pqIcBsZuuDhNRbUoPRRa-68" edge="1">
          <mxGeometry width="50" height="50" relative="1" as="geometry">
            <mxPoint x="400" y="820" as="sourcePoint" />
            <mxPoint x="450" y="770" as="targetPoint" />
          </mxGeometry>
        </mxCell>
        <mxCell id="pqIcBsZuuDhNRbUoPRRa-78" value="" style="endArrow=none;html=1;rounded=0;entryX=0.649;entryY=1.007;entryDx=0;entryDy=0;entryPerimeter=0;exitX=0.5;exitY=0;exitDx=0;exitDy=0;" parent="1" source="pqIcBsZuuDhNRbUoPRRa-74" target="pqIcBsZuuDhNRbUoPRRa-68" edge="1">
          <mxGeometry width="50" height="50" relative="1" as="geometry">
            <mxPoint x="400" y="820" as="sourcePoint" />
            <mxPoint x="450" y="770" as="targetPoint" />
          </mxGeometry>
        </mxCell>
        <mxCell id="pqIcBsZuuDhNRbUoPRRa-79" value="" style="endArrow=none;html=1;rounded=0;entryX=0.75;entryY=1;entryDx=0;entryDy=0;exitX=0.5;exitY=0;exitDx=0;exitDy=0;" parent="1" source="pqIcBsZuuDhNRbUoPRRa-75" target="pqIcBsZuuDhNRbUoPRRa-68" edge="1">
          <mxGeometry width="50" height="50" relative="1" as="geometry">
            <mxPoint x="230" y="860" as="sourcePoint" />
            <mxPoint x="280" y="810" as="targetPoint" />
          </mxGeometry>
        </mxCell>
        <mxCell id="pqIcBsZuuDhNRbUoPRRa-80" value="ATTEND" style="rhombus;whiteSpace=wrap;html=1;" parent="1" vertex="1">
          <mxGeometry x="80" y="850" width="80" height="75" as="geometry" />
        </mxCell>
        <mxCell id="pqIcBsZuuDhNRbUoPRRa-81" value="" style="endArrow=none;html=1;rounded=0;exitX=1;exitY=0.5;exitDx=0;exitDy=0;entryX=0;entryY=0.5;entryDx=0;entryDy=0;" parent="1" source="pqIcBsZuuDhNRbUoPRRa-80" target="pqIcBsZuuDhNRbUoPRRa-68" edge="1">
          <mxGeometry width="50" height="50" relative="1" as="geometry">
            <mxPoint x="400" y="820" as="sourcePoint" />
            <mxPoint x="450" y="770" as="targetPoint" />
          </mxGeometry>
        </mxCell>
        <mxCell id="pqIcBsZuuDhNRbUoPRRa-85" value="" style="endArrow=none;html=1;rounded=0;entryX=0;entryY=1;entryDx=0;entryDy=0;exitX=0.5;exitY=0;exitDx=0;exitDy=0;" parent="1" source="pqIcBsZuuDhNRbUoPRRa-80" target="pqIcBsZuuDhNRbUoPRRa-7" edge="1">
          <mxGeometry width="50" height="50" relative="1" as="geometry">
            <mxPoint x="60" y="500" as="sourcePoint" />
            <mxPoint x="110" y="450" as="targetPoint" />
            <Array as="points">
              <mxPoint x="120" y="320" />
            </Array>
          </mxGeometry>
        </mxCell>
        <mxCell id="pqIcBsZuuDhNRbUoPRRa-86" value="N" style="text;html=1;align=center;verticalAlign=middle;resizable=0;points=[];autosize=1;strokeColor=none;fillColor=none;" parent="1" vertex="1">
          <mxGeometry x="240" y="270" width="30" height="30" as="geometry" />
        </mxCell>
        <mxCell id="pqIcBsZuuDhNRbUoPRRa-87" value="N" style="text;html=1;align=center;verticalAlign=middle;resizable=0;points=[];autosize=1;strokeColor=none;fillColor=none;" parent="1" vertex="1">
          <mxGeometry x="705" y="265" width="30" height="30" as="geometry" />
        </mxCell>
        <mxCell id="pqIcBsZuuDhNRbUoPRRa-88" value="1" style="text;html=1;align=center;verticalAlign=middle;resizable=0;points=[];autosize=1;strokeColor=none;fillColor=none;" parent="1" vertex="1">
          <mxGeometry x="455" y="265" width="30" height="30" as="geometry" />
        </mxCell>
        <mxCell id="pqIcBsZuuDhNRbUoPRRa-89" value="N" style="text;html=1;align=center;verticalAlign=middle;resizable=0;points=[];autosize=1;strokeColor=none;fillColor=none;" parent="1" vertex="1">
          <mxGeometry x="235" y="435" width="30" height="30" as="geometry" />
        </mxCell>
        <mxCell id="pqIcBsZuuDhNRbUoPRRa-90" value="1" style="text;html=1;align=center;verticalAlign=middle;resizable=0;points=[];autosize=1;strokeColor=none;fillColor=none;" parent="1" vertex="1">
          <mxGeometry x="705" y="425" width="30" height="30" as="geometry" />
        </mxCell>
        <mxCell id="pqIcBsZuuDhNRbUoPRRa-92" value="N" style="text;html=1;align=center;verticalAlign=middle;resizable=0;points=[];autosize=1;strokeColor=none;fillColor=none;" parent="1" vertex="1">
          <mxGeometry x="355" y="655" width="30" height="30" as="geometry" />
        </mxCell>
        <mxCell id="pqIcBsZuuDhNRbUoPRRa-93" value="N" style="text;html=1;align=center;verticalAlign=middle;resizable=0;points=[];autosize=1;strokeColor=none;fillColor=none;" parent="1" vertex="1">
          <mxGeometry x="525" y="655" width="30" height="30" as="geometry" />
        </mxCell>
        <mxCell id="pqIcBsZuuDhNRbUoPRRa-94" value="PRACTICE" style="rhombus;whiteSpace=wrap;html=1;" parent="1" vertex="1">
          <mxGeometry x="645" y="640" width="80" height="75" as="geometry" />
        </mxCell>
        <mxCell id="pqIcBsZuuDhNRbUoPRRa-95" value="" style="endArrow=none;html=1;rounded=0;exitX=0.5;exitY=0;exitDx=0;exitDy=0;entryX=0.5;entryY=1;entryDx=0;entryDy=0;" parent="1" source="pqIcBsZuuDhNRbUoPRRa-61" target="pqIcBsZuuDhNRbUoPRRa-94" edge="1">
          <mxGeometry width="50" height="50" relative="1" as="geometry">
            <mxPoint x="610" y="780" as="sourcePoint" />
            <mxPoint x="460" y="700" as="targetPoint" />
          </mxGeometry>
        </mxCell>
        <mxCell id="pqIcBsZuuDhNRbUoPRRa-96" value="N" style="text;html=1;align=center;verticalAlign=middle;resizable=0;points=[];autosize=1;strokeColor=none;fillColor=none;" parent="1" vertex="1">
          <mxGeometry x="655" y="605" width="30" height="30" as="geometry" />
        </mxCell>
        <mxCell id="pqIcBsZuuDhNRbUoPRRa-97" value="N" style="text;html=1;align=center;verticalAlign=middle;resizable=0;points=[];autosize=1;strokeColor=none;fillColor=none;" parent="1" vertex="1">
          <mxGeometry x="685" y="715" width="30" height="30" as="geometry" />
        </mxCell>
        <mxCell id="pqIcBsZuuDhNRbUoPRRa-98" value="1" style="text;html=1;align=center;verticalAlign=middle;resizable=0;points=[];autosize=1;strokeColor=none;fillColor=none;" parent="1" vertex="1">
          <mxGeometry x="685" y="825" width="30" height="30" as="geometry" />
        </mxCell>
        <mxCell id="pqIcBsZuuDhNRbUoPRRa-99" value="N" style="text;html=1;align=center;verticalAlign=middle;resizable=0;points=[];autosize=1;strokeColor=none;fillColor=none;" parent="1" vertex="1">
          <mxGeometry x="615" y="865" width="30" height="30" as="geometry" />
        </mxCell>
        <mxCell id="pqIcBsZuuDhNRbUoPRRa-100" value="N" style="text;html=1;align=center;verticalAlign=middle;resizable=0;points=[];autosize=1;strokeColor=none;fillColor=none;" parent="1" vertex="1">
          <mxGeometry x="385" y="865" width="30" height="30" as="geometry" />
        </mxCell>
        <mxCell id="pqIcBsZuuDhNRbUoPRRa-101" value="N" style="text;html=1;align=center;verticalAlign=middle;resizable=0;points=[];autosize=1;strokeColor=none;fillColor=none;" parent="1" vertex="1">
          <mxGeometry x="115" y="815" width="30" height="30" as="geometry" />
        </mxCell>
        <mxCell id="pqIcBsZuuDhNRbUoPRRa-102" value="1" style="text;html=1;align=center;verticalAlign=middle;resizable=0;points=[];autosize=1;strokeColor=none;fillColor=none;" parent="1" vertex="1">
          <mxGeometry x="455" y="425" width="30" height="30" as="geometry" />
        </mxCell>
      </root>
    </mxGraphModel>
  </diagram>
</mxfile>
